HIERARCHY
ROOT Hips
{
 OFFSET 0.000000 0.000000 0.000000
 CHANNELS 6 Xposition Yposition Zposition Yrotation Xrotation Zrotation
 JOINT Chest
 {
  OFFSET 0.000000 9.581000 -0.001100
  CHANNELS 3 Yrotation Xrotation Zrotation
  JOINT Chest2
  {
   OFFSET 0.000000 9.561100 0.002200
   CHANNELS 3 Yrotation Xrotation Zrotation
   JOINT Chest3
   {
    OFFSET 0.000000 9.521100 0.000000
    CHANNELS 3 Yrotation Xrotation Zrotation
    JOINT Chest4
    {
     OFFSET 0.000000 9.511400 0.000000
     CHANNELS 3 Yrotation Xrotation Zrotation
     JOINT Neck
     {
      OFFSET 0.000000 14.375100 0.000000
      CHANNELS 3 Yrotation Xrotation Zrotation
      JOINT Head
      {
       OFFSET 0.000000 8.901200 0.004600
       CHANNELS 3 Yrotation Xrotation Zrotation
       End Site
       {
        OFFSET 0.000000 16.962200 0.002400
       }
      }
     }
     JOINT RightCollar
     {
      OFFSET -2.920100 9.518800 0.000000
      CHANNELS 3 Yrotation Xrotation Zrotation
      JOINT RightShoulder
      {
       OFFSET -13.664500 0.000000 0.000000
       CHANNELS 3 Yrotation Xrotation Zrotation
       JOINT RightElbow
       {
        OFFSET 0.000000 -29.999200 0.000000
        CHANNELS 3 Yrotation Xrotation Zrotation
        JOINT RightWrist
        {
         OFFSET 0.000000 -24.253600 0.000000
         CHANNELS 3 Yrotation Xrotation Zrotation
         End Site
         {
          OFFSET 0.000000 -17.918900 0.000000
         }
        }
       }
      }
     }
     JOINT LeftCollar
     {
      OFFSET 2.920100 9.518800 0.000000
      CHANNELS 3 Yrotation Xrotation Zrotation
      JOINT LeftShoulder
      {
       OFFSET 13.664500 0.000000 0.000000
       CHANNELS 3 Yrotation Xrotation Zrotation
       JOINT LeftElbow
       {
        OFFSET 0.000000 -29.999200 0.000000
        CHANNELS 3 Yrotation Xrotation Zrotation
        JOINT LeftWrist
        {
         OFFSET 0.000000 -24.253600 0.000000
         CHANNELS 3 Yrotation Xrotation Zrotation
         End Site
         {
          OFFSET 0.000000 -17.918900 0.000000
         }
        }
       }
      }
     }
    }
   }
  }
 }
 JOINT RightHip
 {
  OFFSET -7.797300 0.005300 0.000500
  CHANNELS 3 Yrotation Xrotation Zrotation
  JOINT RightKnee
  {
   OFFSET 0.000000 -40.663400 -0.000500
   CHANNELS 3 Yrotation Xrotation Zrotation
   JOINT RightAnkle
   {
    OFFSET 0.000000 -39.523700 -0.000900
    CHANNELS 3 Yrotation Xrotation Zrotation
    JOINT RightToe
    {
     OFFSET 0.000000 -6.418000 14.485300
     CHANNELS 3 Yrotation Xrotation Zrotation
     End Site
     {
      OFFSET 0.000000 -1.465200 6.326400
     }
    }
   }
  }
 }
 JOINT LeftHip
 {
  OFFSET 7.797300 0.005300 0.000500
  CHANNELS 3 Yrotation Xrotation Zrotation
  JOINT LeftKnee
  {
   OFFSET 0.000000 -40.663400 -0.000500
   CHANNELS 3 Yrotation Xrotation Zrotation
   JOINT LeftAnkle
   {
    OFFSET 0.000000 -39.523700 -0.000900
    CHANNELS 3 Yrotation Xrotation Zrotation
    JOINT LeftToe
    {
     OFFSET 0.000000 -6.418000 14.485300
     CHANNELS 3 Yrotation Xrotation Zrotation
     End Site
     {
      OFFSET 0.000000 -1.465200 6.326400
     }
    }
   }
  }
 }
}
MOTION
Frames: 9
Frame Time: 0.008333
0.000000 86.422400 0.000000 0.000000 -5.767877 0.000000 0.000000 11.653817 0.000000 0.000000 -5.885947 0.000000 0.000000 -0.000000 0.000000 0.000000 -0.000000 0.000000 0.000000 12.528835 0.000000 0.000000 0.711642 0.000000 0.000000 -0.000000 0.000000 0.000000 0.000000 -90.000000 0.000000 -2.309062 0.000000 0.000000 2.309062 0.000000 0.000000 -0.000000 0.000000 0.000000 -0.000000 90.000000 0.000000 -2.309062 0.000000 0.000000 2.309062 0.000000 0.000000 8.520406 0.000000 0.000000 1.905762 0.000000 -0.000000 -4.658285 0.000000 0.000000 -0.000000 0.000000 0.000000 8.520406 0.000000 0.000000 1.905762 0.000000 -0.000000 -4.658285 0.000000 0.000000 -0.000000 0.000000
-13.302854 126.905416 33.500042 -160.198469 -50.046072 -3.274558 -3.653266 26.346554 -1.977956 -0.551866 4.496283 -0.235408 -0.867461 7.087915 -0.356900 -2.855455 21.567014 -1.434574 7.248796 13.521998 4.649146 6.815202 -11.355812 3.366733 2.975942 4.720340 3.074144 -6.415001 -9.977026 -6.114099 -85.431743 -59.888846 121.344332 -8.239022 -6.898157 -23.026913 -9.784710 1.167477 -1.329984 3.319532 -14.289930 8.974976 55.123602 -35.309031 -95.480819 15.297845 -29.006309 22.115415 -6.678107 -22.943300 -10.909822 -9.850873 78.667619 -11.063606 9.997785 -15.540185 3.401970 0.000026 0.002686 0.000011 4.442585 5.665618 -1.660376 128.748469 65.044900 147.285265 10.754713 10.279191 3.523738 -0.002896 0.014695 -0.001283
-13.302185 126.906445 33.501851 -160.192297 -50.072913 -3.276069 -3.647877 26.343832 -1.956949 -0.538221 4.461597 -0.204841 -0.863963 7.083368 -0.345653 -2.894820 21.614850 -1.476104 7.448066 13.559000 4.633810 7.024710 -11.292940 3.292562 3.008014 4.729029 3.145356 -6.956098 -10.309978 -6.268413 -85.737789 -59.438820 121.179573 -8.612840 -8.092142 -23.514107 -9.780873 1.136306 -1.294892 3.936454 -14.514368 8.888001 55.665606 -34.045186 -95.753198 15.737912 -29.716829 22.014877 -6.684859 -22.920136 -10.915304 -9.846452 78.666380 -11.065342 9.998520 -15.539275 3.402887 0.000047 0.002852 0.000021 4.442495 5.681808 -1.661554 128.754909 65.040334 147.292683 10.759703 10.298163 3.499144 -0.002755 0.020367 -0.001221
-13.301069 126.909542 33.502132 -160.191669 -50.118603 -3.278092 -3.641845 26.375258 -1.945893 -0.531251 4.447339 -0.191393 -0.866840 7.089652 -0.346878 -2.866999 21.602322 -1.437028 7.611088 13.616797 4.587878 7.229998 -11.235018 3.214604 2.986653 4.760857 3.146689 -7.534870 -10.680249 -6.411904 -85.983356 -58.931435 121.039037 -8.972840 -9.256481 -23.950508 -9.787665 1.082742 -1.236050 4.547674 -14.715879 8.766004 56.218913 -32.875723 -96.012178 16.194238 -30.365953 21.863306 -6.688914 -22.876818 -10.919764 -9.890157 78.655278 -11.111906 10.015167 -15.530158 3.402734 -0.001158 0.001477 -0.000513 4.466320 5.703569 -1.645122 128.763217 65.037904 147.315441 10.743497 10.308737 3.532237 0.002374 0.008484 0.001052
-13.299647 126.910627 33.504257 -160.199401 -50.150836 -3.270487 -3.632935 26.392827 -1.937905 -0.528832 4.447566 -0.190216 -0.854250 7.077259 -0.328929 -2.857618 21.603163 -1.418444 7.782071 13.662544 4.548432 7.429871 -11.181945 3.135367 2.973758 4.781981 3.159018 -8.168926 -11.089167 -6.579327 -86.170740 -58.359280 120.928077 -9.312859 -10.363814 -24.325891 -9.794177 1.040498 -1.194764 5.152967 -14.954167 8.690028 56.785141 -31.791983 -96.269284 16.663046 -30.985642 21.671954 -6.689877 -22.850162 -10.926892 -9.906414 78.650749 -11.136818 10.047267 -15.533996 3.404116 0.001259 0.000813 0.000558 4.484053 5.719939 -1.637284 128.746944 65.047907 147.300965 10.749533 10.343419 3.534307 -0.002138 0.004742 -0.000947
-13.298202 126.910918 33.507088 -160.207762 -50.177543 -3.259599 -3.607190 26.378532 -1.904894 -0.541471 4.474590 -0.209630 -0.834850 7.059727 -0.301253 -2.851882 21.611240 -1.405578 7.945346 13.702722 4.507642 7.625271 -11.133287 3.055571 2.978295 4.794145 3.208483 -8.871476 -11.535686 -6.800241 -86.312199 -57.734529 120.852184 -9.636803 -11.407365 -24.626720 -9.811537 1.002202 -1.165669 5.755743 -15.219291 8.644496 57.349264 -30.774263 -96.533566 17.117965 -31.583748 21.453218 -6.691006 -22.830133 -10.939513 -9.910354 78.648377 -11.143551 10.064254 -15.548981 3.394911 -0.000056 -0.002852 -0.000025 4.500594 5.730340 -1.633106 128.744661 65.049680 147.301643 10.753622 10.367368 3.521932 -0.004451 0.007127 -0.001972
-13.296616 126.910714 33.510201 -160.211767 -50.199731 -3.250540 -3.600004 26.387484 -1.898206 -0.532459 4.462110 -0.194000 -0.841792 7.072652 -0.311659 -2.804792 21.594728 -1.356255 8.092885 13.745552 4.460219 7.817845 -11.088767 2.978195 3.000575 4.783045 3.311364 -9.639060 -11.996066 -7.094286 -86.420755 -57.087198 120.810841 -9.945087 -12.392870 -24.858191 -9.846400 0.966471 -1.142633 6.359429 -15.501675 8.616923 57.903821 -29.820918 -96.803504 17.530739 -32.152289 21.218056 -6.687231 -22.812264 -10.954961 -9.915159 78.644635 -11.148334 10.096237 -15.559772 3.388856 0.002546 -0.003273 0.001128 4.515620 5.737353 -1.629077 128.742686 65.050807 147.302749 10.742911 10.368279 3.556180 -0.004858 0.003795 -0.002152
-13.295041 126.910404 33.513213 -160.208802 -50.219489 -3.245196 -3.588435 26.385044 -1.875991 -0.530199 4.461452 -0.190516 -0.850691 7.083321 -0.322644 -2.766189 21.580894 -1.322002 8.251785 13.778112 4.425159 8.008144 -11.047946 2.905467 3.016001 4.765806 3.380537 -10.433659 -12.474329 -7.345489 -86.521006 -56.448754 120.809782 -10.234532 -13.312182 -25.037737 -9.876025 0.927944 -1.103532 6.964461 -15.799242 8.604797 58.454451 -28.955998 -97.074114 17.890195 -32.674451 20.971730 -6.685117 -22.795417 -10.968313 -9.927696 78.641718 -11.158465 10.103618 -15.568629 3.385074 0.003738 -0.002455 0.001656 4.520991 5.751401 -1.630624 128.745451 65.050429 147.309615 10.711714 10.332970 3.633664 -0.000509 -0.002112 -0.000225
-13.293212 126.909440 33.516468 -160.209626 -50.232305 -3.236311 -3.551926 26.354576 -1.823452 -0.542604 4.478703 -0.205728 -0.816934 7.054403 -0.286166 -2.797878 21.605390 -1.337744 8.411466 13.807769 4.393766 8.199099 -11.009975 2.836638 3.023258 4.749521 3.423410 -11.243460 -12.967636 -7.567228 -86.645952 -55.838590 120.858768 -10.506605 -14.153612 -25.178288 -9.899579 0.888953 -1.063650 7.566828 -16.108046 8.607667 59.009793 -28.212824 -97.341253 18.203472 -33.122275 20.703065 -6.683950 -22.789071 -10.978738 -9.932129 78.644870 -11.162721 10.090914 -15.577215 3.381115 0.002287 -0.003092 0.001013 4.529402 5.757630 -1.631827 128.742175 65.055297 147.308011 10.699873 10.323170 3.671108 -0.001953 -0.003685 -0.000865
